<?xml version="1.0" standalone="no"?><!DOCTYPE svg PUBLIC "-//W3C//DTD SVG 1.1//EN" "http://www.w3.org/Graphics/SVG/1.1/DTD/svg11.dtd"><svg t="1566180086046" class="icon" viewBox="0 0 1024 1024" version="1.1" xmlns="http://www.w3.org/2000/svg" p-id="10529" xmlns:xlink="http://www.w3.org/1999/xlink" width="200" height="200"><defs><style type="text/css"></style></defs><path d="M897.278877 512.49835c-5.821589-63.892169-59.531861-113.945145-124.941594-113.945145-10.579963 0-20.850887 1.315972-30.665417 3.781116-25.622564-79.205946-99.968829-136.494721-187.707103-136.494721-73.048713 0-136.820132 39.709397-170.915671 98.717326-19.122523-9.141194-40.533159-14.263865-63.142086-14.263865-78.588893 0-142.727679 61.84658-146.414651 139.522684-61.869093 9.108448-109.35971 62.409398-109.35971 126.808104 0 70.796416 57.392128 128.188544 128.188544 128.188544 33.012881 0 63.107293-12.482289 85.830831-32.981159 22.600741 19.781532 52.190663 31.774681 84.585467 31.774681 41.061185 0 77.622892-19.260669 101.144608-49.239448 28.955472 37.988196 74.673723 62.511729 126.126582 62.511729 50.980091 0 96.331999-24.074302 125.325333-61.466933 23.38971 37.621852 65.092507 62.673411 112.652709 62.673411 73.212442 0 132.562155-59.349713 132.562155-132.562155C960.547853 577.710584 935.232281 535.816428 897.278877 512.49835z" p-id="10530" fill="#ffffff"></path></svg>