<?xml version="1.0" standalone="no"?><!DOCTYPE svg PUBLIC "-//W3C//DTD SVG 1.1//EN" "http://www.w3.org/Graphics/SVG/1.1/DTD/svg11.dtd"><svg t="1565948195054" class="icon" viewBox="0 0 1026 1024" version="1.1" xmlns="http://www.w3.org/2000/svg" p-id="14464" xmlns:xlink="http://www.w3.org/1999/xlink" width="200.390625" height="200"><defs><style type="text/css"></style></defs><path d="M71.025706 659.575634L19.296719 846.539889c-21.187533 81.635497 39.128234 161.62254 121.869376 161.62254 35.881402 0 70.064275-15.609231 93.981871-42.907859L439.403957 742.10446z m0 0" fill="#00C395" p-id="14465"></path><path d="M71.025706 659.575634l-3.845723 13.920718L373.397721 742.10446 169.135722 965.256573c-16.440468 18.769935-37.736162 32.007636-61.098933 38.457235a124.401144 124.401144 0 0 0 33.127303 4.450624c35.881402 0 70.056263-15.609231 93.975862-42.907859l204.264003-223.152113z m0 0" fill="#00A97D" p-id="14466"></path><path d="M953.106491 629.568976l53.299324 226.893681c20.404367 77.052676-37.698105 152.547033-117.41074 152.547033a121.474789 121.474789 0 0 1-90.54075-40.498273l-223.232233-237.07884z m0 0" fill="#00C395" p-id="14467"></path><path d="M1006.403812 856.462657l-53.299324-226.893681-62.068376 16.736909L940.399579 856.462657c17.445965 65.870033-22.493477 130.592358-84.25139 147.992254a121.186359 121.186359 0 0 0 32.846886 4.554779c79.712635 0 137.815108-75.49636 117.408737-152.547033z m0 0" fill="#00A97D" p-id="14468"></path><path d="M362.054839 347.258819c0-52.86668 42.859787-95.720459 95.720459-95.720459h108.5816c52.868683 0 95.722462 42.853778 95.722462 95.722462l-21.001255 82.292474-258.024013-0.640954z m0 0" fill="#FFC843" p-id="14469"></path><path d="M566.358901 251.53836H506.353597c52.86668 0 95.720459 42.853778 95.720459 95.712447l-20.961197 82.154269 59.965246 0.14822 20.999252-82.302489c0.008012-52.858669-42.853778-95.712447-95.722462-95.712447z m0 0" fill="#FFB400" p-id="14470"></path><path d="M762.094211 325.538493c-62.913633 0-120.327081 23.440887-163.937986 62.006283h-172.17825c-43.612908-38.565396-101.018344-62.006283-163.931977-62.006283C125.616953 325.538493 15.022357 435.688427 15.022357 571.560643c0 135.874219 110.594596 246.024153 247.023641 246.024153 79.728659 0 150.614156-37.619989 195.783381-96.002879h108.481451c45.169225 58.38289 116.056725 96.002879 195.783381 96.002879 136.423036 0 247.025644-110.149934 247.025643-246.024153 0-135.872216-110.604611-246.02215-247.025643-246.02215z m0 0" fill="#76FFD9" p-id="14471"></path><path d="M228.996812 815.393535a250.236422 250.236422 0 0 0 33.049186 2.191261c79.718644 0 150.614156-37.619989 195.783381-96.002879h-66.012245c-38.831793 50.192701-96.689902 85.026543-162.820322 93.811618z m0 0M359.973742 387.544776h66.004233c-43.612908-38.565396-101.018344-62.006283-163.931977-62.006283-11.196664 0-22.205047 0.761133-33.001115 2.199273 49.894257 6.635876 95.077502 28.103826 130.928859 59.809013z m0 0M762.094211 325.538493c-11.196664 0-22.203044 0.761133-33.001115 2.199273 120.819814 16.063908 214.014514 119.09725 214.014513 243.822877 0 124.717615-93.170664 227.73894-213.976457 243.832892a250.354598 250.354598 0 0 0 32.963059 2.191261c136.423036 0 247.017632-110.149934 247.017631-246.024153 0-135.872216-110.594596-246.02215-247.017631-246.02215z m0 0" fill="#5DE0BF" p-id="14472"></path><path d="M188.037853 641.572841c5.782606 5.788615 15.422954 5.788615 21.211569 0l48.792617-48.792617 48.796623 48.792617c13.568193 13.56619 35.084215-7.346934 21.211569-21.211569l-48.792617-48.792617 48.792617-48.798626c13.279764-13.269749-7.33091-35.092227-21.211569-21.211569l-48.798626 48.792617-48.792617-48.792617c-13.267746-13.277761-35.090224 7.338922-21.211569 21.211569l48.792617 48.798626-48.792617 48.792617a14.992313 14.992313 0 0 0 0 21.211569z m0 0M696.081966 641.572841c5.782606 5.788615 15.430966 5.788615 21.211569 0l48.800629-48.792617 48.790614 48.792617c13.56619 13.56619 35.084215-7.346934 21.211569-21.211569l-48.792618-48.792617 48.792618-48.798626c13.277761-13.269749-7.33091-35.092227-21.211569-21.211569l-48.792617 48.792617-48.798626-48.792617c-13.269749-13.277761-35.092227 7.338922-21.211569 21.211569l48.792617 48.798626-48.792617 48.792617a14.992313 14.992313 0 0 0 0 21.211569z m0 0M547.572943 528.560647h-72.007167c-19.348796 0-19.348796 30.004655 0 30.004655h72.007167c19.348796 0 19.348796-30.004655 0-30.004655z m0 0M476.569269 584.565999c-19.348796 0-19.348796 30.004655 0 30.004655h72.005164c19.348796 0 19.348796-30.004655 0-30.004655z m0 0" fill="#FFFFFF" p-id="14473"></path><path d="M868.103983 15.515091v153.508464c0 42.743615-34.77175 77.515365-77.50535 77.515364h-5.007452c-42.735603 0-77.50535-34.77175-77.50535-77.515364v-4.997438c0-59.27622-48.229779-107.512008-107.503996-107.512008-59.284232 0-107.512008 48.235788-107.512008 107.512008v87.574335h30.216971l-0.220328-87.574335c0-42.735603 34.77175-77.507353 77.515365-77.507353 42.735603 0 77.50535 34.77175 77.505349 77.507353v4.999441c0 59.282229 48.227776 107.510005 107.503997 107.510005h5.007452c59.27622 0 107.503996-48.227776 107.503996-107.510005V15.517094c0-19.350799-29.998646-19.350799-29.998646 0z m0 0M1020.933436 852.723092l-36.053658-143.926203c24.856994-39.895376 39.238398-86.917357 39.238398-137.236246 0-143.9242-117.542937-261.020472-262.023965-261.020472a262.837176 262.837176 0 0 0-87.183754 14.874137c-0.04006-0.196292-0.086128-0.384572-0.124185-0.57085-0.016024 0-0.032048 0.008012-0.048072 0.008012-9.498136 2.23733-19.98975 4.170206-27.587057 10.766023-0.280417 0.240358-0.562838 0.460686-0.85327 0.673002 0.046069 0.350522 0.110164 0.695034 0.148221 1.047559a261.733533 261.733533 0 0 0-53.876183 35.2084H431.562286a261.903786 261.903786 0 0 0-46.749576-31.58701c-1.634432-0.014021-3.379029-0.546814-5.13965-1.782654-8.773057-6.135131-18.090924-11.016395-28.276082-14.32532a11.206679 11.206679 0 0 1-1.862773-0.799189c-0.102152 0.454677-0.220328 0.901341-0.306456 1.362027a262.905277 262.905277 0 0 0-87.183754-14.874137c-15.663311 0-31.350659 1.38406-46.647424 4.124138-19.052355 3.411077-13.762482 32.931011 5.28787 29.535958a235.416366 235.416366 0 0 1 41.361557-3.661449 232.706332 232.706332 0 0 1 90.454622 18.285213 14.894167 14.894167 0 0 0 7.376979 3.254844 231.879101 231.879101 0 0 1 56.161584 36.702624 15.002328 15.002328 0 0 0 9.934786 3.763601h172.180253a15.002328 15.002328 0 0 0 9.934785-3.765604 232.029325 232.029325 0 0 1 56.163588-36.700621 14.894167 14.894167 0 0 0 7.376979-3.254844 232.706332 232.706332 0 0 1 90.454622-18.287216c127.942414 0 232.025319 103.640246 232.025319 231.023828 0 127.385586-104.082905 231.023828-232.025319 231.023828-71.590547 0-140.176622-33.650081-183.913716-90.188225a15.008337 15.008337 0 0 0-11.869665-5.820663h-108.481451a15.004331 15.004331 0 0 0-11.861654 5.820663c-43.73509 56.530133-112.361225 90.188225-183.921727 90.188225-127.930396 0-232.017307-103.638243-232.017307-231.023828 0-77.801791 38.972001-149.903098 104.257164-192.873049 16.164057-10.631823-0.328489-35.693121-16.492545-25.059296C44.049558 402.158525 0.024036 483.633783 0.024036 571.560643c0 50.835658 14.669833 98.304304 40.003536 138.466076a15.210638 15.210638 0 0 0-1.884805 4.302404l-33.369663 128.449168c-11.431013 44.049558-2.105133 89.843713 25.592088 125.646998 26.916059 34.785771 67.296156 54.737465 110.7989 54.737465 40.105689 0 78.420712-17.455979 105.156502-47.891276l196.852973-215.070085c7.707471-7.37097 15.022357-15.242685 21.886573-23.621154h94.021931a264.000908 264.000908 0 0 0 36.037634 36.257962l100.892156 107.996729c13.253725 14.1771 35.116263-6.36948 21.92463-20.484487l-38.142767-40.834773c26.138902 8.568753 53.838126 13.07546 82.30249 13.07546 79.952993 0 151.645691-35.87339 199.741271-92.301371l30.01467 119.818324 0.046069 0.196292c8.528693 32.187905 1.768632 65.783905-18.543599 92.177185s-51.059992 41.529808-84.35955 41.529808c-30.265043 0-59.188089-12.94126-79.352099-35.498832-0.080119-0.080119-0.148221-0.164244-0.228339-0.24236l-26.068798-27.909538c-13.215669-14.13704-35.138296 6.337432-21.932642 20.476475l25.968649 27.799373a136.643364 136.643364 0 0 0 101.611226 45.371526c42.689534 0 82.102191-19.402877 108.140944-53.227217 26.014717-33.800304 34.683619-76.826339 23.79942-118.057703z m-796.857949 102.402403c-0.070104 0.086128-0.148221 0.164244-0.220328 0.250373-21.037309 24.011736-51.176165 37.782231-82.691067 37.782231-34.144817 0-65.880048-15.703371-87.069584-43.09614-21.968696-28.394259-29.363701-64.75237-20.286192-99.742444l28.566515-109.935616c48.093577 56.371897 119.756231 92.20723 199.671167 92.207231 30.499392 0 60.12949-5.171697 87.896815-14.968277z m0 0" fill="#434C54" p-id="14474"></path></svg>