<?xml version="1.0" standalone="no"?><!DOCTYPE svg PUBLIC "-//W3C//DTD SVG 1.1//EN" "http://www.w3.org/Graphics/SVG/1.1/DTD/svg11.dtd"><svg t="1565947553723" class="icon" viewBox="0 0 1024 1024" version="1.1" xmlns="http://www.w3.org/2000/svg" p-id="21182" xmlns:xlink="http://www.w3.org/1999/xlink" width="200" height="200"><defs><style type="text/css"></style></defs><path d="M712.324662 643.596254c-29.835588 25.573361-42.622268 76.720083-38.360042 115.080125l25.573361 157.702393-140.653486-72.457856c-34.097815-17.048907-85.244537-17.048907-119.342351 0l-140.653486 72.457856 25.573361-157.702393c8.524454-38.360042-8.524454-85.244537-38.360042-115.080125l-110.817898-110.817898 153.440167-21.311134c38.360042-4.262227 80.98231-34.097815 98.031217-72.457857L503.475546 298.355879l68.19563 140.653486c17.048907 34.097815 59.671176 63.933403 98.031217 72.457857l153.440167 21.311134-110.817898 110.817898z m208.849115-80.98231c21.311134-21.311134 29.835588-46.884495 21.311135-68.19563-8.524454-25.573361-29.835588-38.360042-55.408949-42.622268l-200.324662-29.835588c-8.524454 0-25.573361-12.786681-29.835588-21.311134l-89.506764-183.275755c-12.786681-25.573361-34.097815-42.622268-59.671176-42.622268-25.573361 0-46.884495 17.048907-59.671176 42.622268L354.297607 400.649324c-4.262227 8.524454-17.048907 17.048907-29.835588 21.311134l-200.324662 29.835588c-29.835588 4.262227-51.146722 21.311134-55.408949 42.622268s0 46.884495 21.311134 68.19563L234.955255 707.529657c8.524454 8.524454 12.786681 25.573361 12.78668 34.097814l-34.097814 200.324662c-4.262227 29.835588 4.262227 55.408949 25.573361 68.19563 8.524454 8.524454 17.048907 12.786681 29.835588 12.78668 12.786681 0 25.573361-4.262227 38.360041-8.524453l179.013528-93.768991c8.524454-4.262227 29.835588-4.262227 38.360042 0l179.013527 93.768991c25.573361 12.786681 51.146722 12.786681 72.457857 0s29.835588-38.360042 25.573361-68.19563l-34.097815-200.324662c0-8.524454 4.262227-29.835588 12.78668-34.097815l140.653486-149.177939zM217.906348 336.715921c25.573361 0 42.622268-21.311134 42.622268-42.622269V55.408949c0-25.573361-21.311134-42.622268-42.622268-42.622268s-42.622268 21.311134-42.622269 42.622268v234.422477c-4.262227 25.573361 17.048907 46.884495 42.622269 46.884495z m174.7513-132.129032c25.573361 0 42.622268-21.311134 42.622269-42.622269V55.408949c0-25.573361-21.311134-42.622268-42.622269-42.622268-25.573361 0-42.622268 21.311134-42.622268 42.622268v102.293444c0 25.573361 21.311134 46.884495 42.622268 46.884496z m225.898023 0c25.573361 0 42.622268-21.311134 42.622269-42.622269V55.408949c0-25.573361-21.311134-42.622268-42.622269-42.622268-25.573361 0-42.622268 21.311134-42.622268 42.622268v102.293444c-4.262227 25.573361 17.048907 46.884495 42.622268 46.884496z m174.751301 119.342351c25.573361 0 42.622268-21.311134 42.622268-42.622268V46.884495c0-25.573361-21.311134-42.622268-42.622268-42.622268s-42.622268 21.311134-42.622269 42.622268v234.422477c0 21.311134 17.048907 42.622268 42.622269 42.622268z" fill="#dbdbdb" p-id="21183"></path></svg>